<mxfile host="Electron" modified="2023-10-12T03:21:31.315Z" agent="Mozilla/5.0 (Windows NT 10.0; Win64; x64) AppleWebKit/537.36 (KHTML, like Gecko) draw.io/21.2.8 Chrome/112.0.5615.165 Electron/24.2.0 Safari/537.36" etag="QKMzkkZBegRBSr3KjS6a" version="21.2.8" type="device">
  <diagram name="第 1 页" id="4JcOyXGNsVVQtoJyJbcC">
    <mxGraphModel dx="1400" dy="639" grid="1" gridSize="10" guides="1" tooltips="1" connect="1" arrows="1" fold="1" page="0" pageScale="1" pageWidth="3300" pageHeight="4681" math="0" shadow="0">
      <root>
        <mxCell id="0" />
        <mxCell id="1" parent="0" />
        <mxCell id="39vr5BzetpIieyL6YXv6-14" value="客户端" style="rounded=1;arcSize=6;strokeColor=none;fillColor=#DBDBDB;gradientColor=none;fontSize=16;verticalAlign=top;" vertex="1" parent="1">
          <mxGeometry x="-270" y="160" width="140" height="140" as="geometry" />
        </mxCell>
        <mxCell id="39vr5BzetpIieyL6YXv6-5" value="服务器" style="rounded=1;arcSize=6;strokeColor=none;fillColor=#DBDBDB;gradientColor=none;fontSize=16;verticalAlign=top;" vertex="1" parent="1">
          <mxGeometry x="180" y="160" width="280" height="140" as="geometry" />
        </mxCell>
        <mxCell id="39vr5BzetpIieyL6YXv6-4" value="ssh &lt;br&gt;server" style="rounded=1;whiteSpace=wrap;html=1;absoluteArcSize=1;arcSize=14;strokeWidth=2;fontSize=16;" vertex="1" parent="1">
          <mxGeometry x="200" y="200" width="80" height="80" as="geometry" />
        </mxCell>
        <mxCell id="39vr5BzetpIieyL6YXv6-6" value="shell" style="rounded=1;whiteSpace=wrap;html=1;absoluteArcSize=1;arcSize=14;strokeWidth=2;fontSize=16;" vertex="1" parent="1">
          <mxGeometry x="360" y="200" width="80" height="80" as="geometry" />
        </mxCell>
        <mxCell id="39vr5BzetpIieyL6YXv6-8" value="" style="endArrow=classic;html=1;rounded=0;fontSize=12;startSize=8;endSize=8;curved=1;exitX=1;exitY=0.25;exitDx=0;exitDy=0;entryX=0;entryY=0.25;entryDx=0;entryDy=0;" edge="1" parent="1" source="39vr5BzetpIieyL6YXv6-4" target="39vr5BzetpIieyL6YXv6-6">
          <mxGeometry width="50" height="50" relative="1" as="geometry">
            <mxPoint x="290" y="410" as="sourcePoint" />
            <mxPoint x="340" y="360" as="targetPoint" />
          </mxGeometry>
        </mxCell>
        <mxCell id="39vr5BzetpIieyL6YXv6-9" value="" style="endArrow=classic;html=1;rounded=0;fontSize=12;startSize=8;endSize=8;curved=1;exitX=0;exitY=0.75;exitDx=0;exitDy=0;entryX=1;entryY=0.75;entryDx=0;entryDy=0;" edge="1" parent="1" source="39vr5BzetpIieyL6YXv6-6" target="39vr5BzetpIieyL6YXv6-4">
          <mxGeometry width="50" height="50" relative="1" as="geometry">
            <mxPoint x="260" y="390" as="sourcePoint" />
            <mxPoint x="340" y="390" as="targetPoint" />
          </mxGeometry>
        </mxCell>
        <mxCell id="39vr5BzetpIieyL6YXv6-10" value="ssh &lt;br&gt;client" style="rounded=1;whiteSpace=wrap;html=1;absoluteArcSize=1;arcSize=14;strokeWidth=2;fontSize=16;" vertex="1" parent="1">
          <mxGeometry x="-240" y="200" width="80" height="80" as="geometry" />
        </mxCell>
        <mxCell id="39vr5BzetpIieyL6YXv6-11" value="" style="endArrow=classic;html=1;rounded=0;fontSize=12;startSize=8;endSize=8;curved=1;exitX=1;exitY=0.25;exitDx=0;exitDy=0;entryX=0;entryY=0.25;entryDx=0;entryDy=0;" edge="1" parent="1" source="39vr5BzetpIieyL6YXv6-10" target="39vr5BzetpIieyL6YXv6-4">
          <mxGeometry width="50" height="50" relative="1" as="geometry">
            <mxPoint x="-70" y="350" as="sourcePoint" />
            <mxPoint x="-20" y="300" as="targetPoint" />
          </mxGeometry>
        </mxCell>
        <mxCell id="39vr5BzetpIieyL6YXv6-12" value="" style="endArrow=classic;html=1;rounded=0;fontSize=12;startSize=8;endSize=8;curved=1;exitX=0;exitY=0.75;exitDx=0;exitDy=0;entryX=1;entryY=0.75;entryDx=0;entryDy=0;" edge="1" parent="1" source="39vr5BzetpIieyL6YXv6-4" target="39vr5BzetpIieyL6YXv6-10">
          <mxGeometry width="50" height="50" relative="1" as="geometry">
            <mxPoint x="-190" y="370" as="sourcePoint" />
            <mxPoint x="170" y="370" as="targetPoint" />
          </mxGeometry>
        </mxCell>
        <mxCell id="39vr5BzetpIieyL6YXv6-15" value="pwd" style="text;html=1;strokeColor=none;fillColor=none;align=center;verticalAlign=middle;whiteSpace=wrap;rounded=0;fontSize=16;" vertex="1" parent="1">
          <mxGeometry x="-20" y="190" width="60" height="30" as="geometry" />
        </mxCell>
        <mxCell id="39vr5BzetpIieyL6YXv6-16" value="pwd" style="text;html=1;strokeColor=none;fillColor=none;align=center;verticalAlign=middle;whiteSpace=wrap;rounded=0;fontSize=16;" vertex="1" parent="1">
          <mxGeometry x="290" y="190" width="60" height="30" as="geometry" />
        </mxCell>
        <mxCell id="39vr5BzetpIieyL6YXv6-17" value="/root" style="text;html=1;strokeColor=none;fillColor=none;align=center;verticalAlign=middle;whiteSpace=wrap;rounded=0;fontSize=16;" vertex="1" parent="1">
          <mxGeometry x="290" y="230" width="60" height="30" as="geometry" />
        </mxCell>
        <mxCell id="39vr5BzetpIieyL6YXv6-18" value="/root" style="text;html=1;strokeColor=none;fillColor=none;align=center;verticalAlign=middle;whiteSpace=wrap;rounded=0;fontSize=16;" vertex="1" parent="1">
          <mxGeometry x="-20" y="230" width="60" height="30" as="geometry" />
        </mxCell>
      </root>
    </mxGraphModel>
  </diagram>
</mxfile>
